<svg width="512" height="97" viewBox="0 0 512 97" fill="none" xmlns="http://www.w3.org/2000/svg">
<g clip-path="url(#clip0_101_2)">
<path d="M65.898 9.76502C63.324 8.33702 55.946 9.22002 47.085 11.963C31.577 22.563 18.489 38.18 17.575 63.259C17.409 63.859 15.88 63.177 15.577 62.992C11.389 54.965 9.72999 46.513 13.227 34.32C13.879 33.235 11.747 31.9 11.365 32.28C10.597 33.05 7.39799 36.458 5.27299 40.144C-5.26101 58.417 1.62699 81.83 20.057 92.077C38.482 102.339 61.749 95.719 72.008 77.288C83.877 56.016 72.856 13.65 65.898 9.76502Z" fill="#82B541"/>
<path d="M131.85 19.974C110.004 19.974 94.146 36.216 94.146 58.594C94.146 81.154 109.962 96.912 132.612 96.912C144.052 96.912 153.109 93.335 160.312 85.971C162.464 83.648 162.695 81.409 162.695 80.553C162.695 76.905 159.982 74.255 156.245 74.255C154.36 74.255 152.785 74.967 150.977 76.638C146.898 80.438 141.527 84.321 132.612 84.321C120.214 84.321 110.132 75.013 109.497 63.061H158.839C164.204 63.061 166.811 60.551 166.811 55.394C166.811 53.874 166.811 52.779 166.505 50.617C163.847 31.431 150.894 19.977 131.852 19.977L131.85 19.974ZM131.85 31.954C143.697 31.954 151.298 39.504 151.767 51.689H109.512C110.622 40.412 120.156 31.954 131.85 31.954ZM213.927 19.974C204.003 19.974 194.177 25.681 190.337 33.607V28.708C190.337 21.121 184.457 20.736 183.279 20.736C179.795 20.736 176.07 22.83 176.07 28.708V87.868C176.07 95.748 182.33 96.146 183.584 96.146C184.839 96.146 191.101 95.748 191.101 87.868V56.154C191.101 42.356 198.921 32.718 210.116 32.718C220.959 32.718 226.232 39.834 226.232 54.475V87.868C226.232 95.748 232.494 96.146 233.749 96.146C235.003 96.146 241.263 95.748 241.263 87.868V49.755C241.263 35.359 234.081 19.979 213.927 19.979V19.974ZM309.272 20.737C305.799 20.737 303.28 22.763 301.78 26.749L281.216 78.461L260.808 26.749C259.21 22.704 256.71 20.737 253.163 20.737C249.019 20.737 245.646 23.971 245.646 27.947C245.646 28.93 245.758 30.207 246.59 32.199L270.223 88.001C273.039 94.733 277.671 96.146 281.063 96.146C284.452 96.146 289.087 94.733 291.909 88.005L315.695 31.892C316.508 29.924 316.634 28.479 316.634 27.795C316.634 23.773 313.466 20.738 309.272 20.738V20.737ZM352.963 19.974C343.35 19.974 334.396 22.652 327.755 27.508C325.502 29.062 324.407 31 324.407 33.438C324.407 36.794 326.969 39.425 330.247 39.425C331.664 39.425 333.251 38.861 334.707 37.841C340.417 34.035 345.782 32.26 351.589 32.26C362.702 32.26 369.082 37.912 369.082 47.768V49.4C344.135 49.427 318.762 52.44 318.762 74.143C318.762 89.763 332.11 96.756 345.338 96.756C355.874 96.756 364.288 92.581 369.686 84.677V88.478C369.686 94.138 373.486 96.145 376.748 96.145C377.434 96.145 383.498 95.93 383.498 88.478V48.68C383.498 30.702 372.08 19.97 352.962 19.97L352.963 19.974ZM365.92 60.467H369.082V63.93C369.082 76.594 361.018 84.776 348.542 84.776C345.155 84.776 334.102 83.988 334.102 73.838C334.102 61.853 352.26 60.467 365.92 60.467ZM422.648 34.395C429.224 34.395 429.557 29.277 429.557 28.252C429.557 25.209 427.741 21.956 422.647 21.956H409.125V8.278C409.125 2.168 405.161 0 401.763 0C400.509 0 394.249 0.398 394.249 8.278V73.232C394.249 88.222 401.643 96.145 415.636 96.145C419.256 96.145 422.784 95.505 425.09 94.43C427.736 93.11 429.251 90.94 429.251 88.478C429.251 85.005 426.732 82.486 423.259 82.486C422.588 82.486 421.634 82.652 420.581 82.955C419.294 83.277 418.422 83.402 417.468 83.402C411.775 83.402 409.125 79.686 409.125 71.706V34.388H422.648V34.395ZM472.345 19.974C449.611 19.974 433.118 36.088 433.118 58.286C433.118 69.094 437.115 78.945 444.368 86.022C451.565 93.043 461.5 96.909 472.346 96.909C494.796 96.909 511.726 80.305 511.726 58.287C511.726 36.088 495.16 19.975 472.346 19.975L472.345 19.974ZM472.345 84.164C456.755 84.164 448.603 71.146 448.603 58.284C448.603 40.612 460.91 32.564 472.345 32.564C483.78 32.564 496.087 40.612 496.087 58.284C496.087 76.067 483.78 84.164 472.345 84.164Z" fill="black"/>
</g>
<defs>
<clipPath id="clip0_101_2">
<rect width="512" height="97" fill="white"/>
</clipPath>
</defs>
</svg>
